<svg width="9" height="5" viewBox="0 0 9 5" fill="none" xmlns="http://www.w3.org/2000/svg">
<path d="M4.164 3.712L4.284 3.496C4.5 3.94 4.752 4.288 5.052 4.54C5.388 4.84 5.784 4.996 6.264 4.996C6.876 4.996 7.344 4.756 7.692 4.3C8.028 3.832 8.208 3.292 8.208 2.68C8.208 2.08 8.028 1.552 7.68 1.084C7.332 0.628 6.852 0.4 6.228 0.4C5.724 0.4 5.28 0.556 4.92 0.892C4.68 1.096 4.44 1.444 4.176 1.912C3.912 1.384 3.624 1 3.312 0.76C3 0.52 2.64 0.412 2.244 0.412C1.632 0.412 1.14 0.628 0.78 1.084C0.432 1.528 0.252 2.068 0.252 2.704C0.252 3.376 0.432 3.928 0.804 4.36C1.188 4.78 1.668 4.996 2.268 4.996C2.76 4.996 3.192 4.828 3.564 4.492C3.768 4.3 3.972 4.048 4.164 3.712ZM1.5 3.76C1.272 3.532 1.164 3.196 1.164 2.752C1.164 2.32 1.26 1.984 1.476 1.72C1.68 1.468 1.92 1.336 2.22 1.336C2.568 1.336 2.904 1.528 3.252 1.912C3.576 2.296 3.744 2.536 3.744 2.632C3.744 2.764 3.588 3.04 3.276 3.472C2.976 3.892 2.628 4.108 2.268 4.108C1.992 4.108 1.74 4 1.5 3.76ZM7.008 1.732C7.212 1.984 7.308 2.296 7.308 2.68C7.308 3.088 7.212 3.424 6.996 3.688C6.792 3.952 6.516 4.084 6.168 4.084C5.808 4.084 5.496 3.88 5.208 3.484C4.908 3.076 4.764 2.812 4.764 2.68C4.764 2.56 4.908 2.308 5.196 1.924C5.484 1.54 5.796 1.348 6.156 1.348C6.516 1.348 6.804 1.48 7.008 1.732Z" fill="#DFDFDF"/>
</svg>
