<svg class="service-icon-5" aria-hidden="true" version="1.1" xmlns="http://www.w3.org/2000/svg" xmlns:xlink="http://www.w3.org/1999/xlink"  viewBox="0 0 331 330">
    <path class="fire" d="M118.307 114.675V102.478C116.144 108.696 110.282 112.864 103.698 112.865H88.2291C79.686 112.865 72.7604 119.79 72.7604 128.333V133.49C72.759 135.059 72.9966 136.62 73.4651 138.119C74.0944 137.588 74.7803 137.129 75.5104 136.749" fill="#FC486B"/>
    <path class="fire" fill-rule="evenodd" clip-rule="evenodd" d="M137.03 79.9219H125.182C121.385 79.9219 118.307 83 118.307 86.7969V87.1572C116.144 80.9385 110.282 76.7705 103.698 76.7705H88.2291C79.6859 76.7705 72.7604 69.8447 72.7604 61.3018V56.1455C72.7604 47.6025 79.6859 40.6768 88.2291 40.6768H153.954C143.265 46.6494 136.641 57.9365 136.641 70.1816C136.607 73.4326 136.737 76.6836 137.03 79.9219ZM82.4656 61.8408L81.4171 67.2432L82.4999 61.8115L83.5254 56.4092L82.4771 61.8115L76.7708 60.7285L82.4656 61.8408Z" fill="#FC486B"/>
    <path class="fire" d="M189.973 42.5904C198.93 48.923 204.253 59.2125 204.245 70.182C204.245 72.9206 204.159 75.5846 203.918 78.1341C205.911 77.2322 208.073 76.7673 210.26 76.7706H220.573C229.116 76.7706 236.042 69.845 236.042 61.3018V56.1456C236.04 50.5523 233.019 45.3956 228.141 42.6591L227.448 46.343L232.604 47.3513L227.448 46.343L226.388 51.7742L227.448 46.343L221.719 45.2602L227.448 46.343L228.164 42.6591C225.848 41.3523 223.232 40.6693 220.573 40.6768H186.931C187.977 41.2625 188.99 41.9031 189.968 42.5961L189.973 42.5904Z" fill="#FC486B"/>
    <path class="fire" fill-rule="evenodd" clip-rule="evenodd" d="M94.5312 200.521C94.5312 191.978 101.457 185.052 110 185.052H131.771V257.239H53.8541C49.7516 257.239 45.817 255.609 42.916 252.709C40.0151 249.808 38.3854 245.873 38.3854 241.771V236.614C38.3854 228.071 45.3109 221.146 53.8541 221.146H73.8489L75.7567 223.976L80.0135 221.111C88.1699 220.608 94.5286 213.849 94.5312 205.677V200.521ZM119.346 191.978C119.28 192.352 119.526 192.71 119.9 192.78C120.084 192.815 120.275 192.774 120.428 192.666C120.581 192.559 120.684 192.393 120.714 192.208C120.773 191.832 120.519 191.479 120.144 191.416C119.769 191.353 119.413 191.604 119.346 191.978Z" fill="#FC486B"/>
    <path class="fire" d="M99.3323 148.958H118.307V139.167L99.3323 148.958Z" fill="#FC486B"/>
    <path class="fire" fill-rule="evenodd" clip-rule="evenodd" d="M219.714 174.453C219.714 174.453 220 149.531 220 137.5L256.764 156.784C259.495 158.193 262.694 158.382 265.571 157.306C268.449 156.229 270.737 153.985 271.872 151.129C273.888 145.836 271.578 139.874 266.521 137.322L219.106 112.864H219.714H265.26C273.804 112.864 280.729 119.79 280.729 128.333V133.489C280.73 141.501 286.849 148.186 294.829 148.895C293.327 153.226 294.698 158.033 298.259 160.919C301.82 163.805 306.807 164.15 310.733 161.784C314.658 159.418 316.681 154.847 315.792 150.351C321.306 152.864 324.844 158.366 324.844 164.427V169.583C324.844 178.126 317.918 185.052 309.375 185.052H249.322H230.885C222.342 185.052 215.417 191.978 215.417 200.521V205.677C215.417 214.22 222.342 221.146 230.885 221.146C239.429 221.146 246.354 228.071 246.354 236.614V241.771C246.354 245.873 244.724 249.808 241.823 252.709C238.922 255.609 234.988 257.239 230.885 257.239H204.531V181.328H212.839C216.635 181.328 219.714 178.25 219.714 174.453Z" fill="#FC486B"/>
    <path class="fire" d="M168.151 192.5C160.082 192.5 153.542 199.041 153.542 207.109V257.24H182.76V207.109C182.76 199.041 176.22 192.5 168.151 192.5Z" fill="#FC486B"/>
    <path class="fire" opacity="0.3" d="M80.0136 221.111C79.6985 221.111 79.3834 221.146 79.0625 221.146H73.849L75.7568 223.982L80.0136 221.111Z" fill="#FC486B"/>
    <path class="fire" opacity="0.3" d="M120.164 191.423C119.787 191.363 119.433 191.618 119.37 191.993C119.308 192.369 119.56 192.725 119.936 192.79C120.311 192.856 120.669 192.606 120.736 192.231C120.771 192.047 120.73 191.857 120.622 191.705C120.514 191.553 120.348 191.451 120.164 191.423Z" fill="#FC486B"/>
    <path class="fire" d="M299.005 161.46C302.657 163.933 307.44 163.959 311.117 161.525C314.795 159.091 316.641 154.678 315.792 150.351C313.778 149.43 311.589 148.955 309.375 148.959H296.198C295.74 148.959 295.281 148.959 294.829 148.896C293.221 153.546 294.933 158.697 299.005 161.46Z" fill="#FC486B"/>
    <path d="M232.587 47.9245L221.73 45.8047" stroke="white" stroke-width="6" stroke-linecap="round" stroke-linejoin="round"/><path d="M228.485 41.4854L226.365 52.3479" stroke="white" stroke-width="6" stroke-linecap="round" stroke-linejoin="round"/><path d="M87.6391 63.3932L76.7823 61.2734" stroke="white" stroke-width="6" stroke-linecap="round" stroke-linejoin="round"/><path d="M83.537 56.9541L81.4172 67.8166" stroke="white" stroke-width="6" stroke-linecap="round" stroke-linejoin="round"/><path d="M245.976 244.154L235.114 242.034" stroke="white" stroke-width="6" stroke-linecap="round" stroke-linejoin="round"/><path d="M241.868 237.142L239.748 248.004" stroke="white" stroke-width="6" stroke-linecap="round" stroke-linejoin="round"/><path d="M294.09 93.0988L273.213 89.0254" stroke="white" stroke-width="6" stroke-linecap="round" stroke-linejoin="round"/><path d="M286.195 80.7295L282.121 101.601" stroke="white" stroke-width="6" stroke-linecap="round" stroke-linejoin="round"/><path d="M45.9823 161.591L35.1198 159.472" stroke="white" stroke-width="6" stroke-linecap="round" stroke-linejoin="round"/><path d="M41.8744 155.151L39.7546 166.014" stroke="white" stroke-width="6" stroke-linecap="round" stroke-linejoin="round"/><rect x="79.3314" y="206.324" width="13.137" height="13.137" transform="rotate(56.04 79.3314 206.324)" stroke="white" stroke-width="6" stroke-linecap="round" stroke-linejoin="round"/><rect x="70.3433" y="102.362" width="13.137" height="13.137" transform="rotate(72.29 70.3433 102.362)" stroke="white" stroke-width="6" stroke-linecap="round" stroke-linejoin="round"/><path fill-rule="evenodd" clip-rule="evenodd" d="M69.4834 264.51C69.8663 264.51 70.1766 264.199 70.1766 263.816C70.1766 263.433 69.8663 263.123 69.4834 263.123C69.1005 263.123 68.7902 263.433 68.7902 263.816C68.7902 264.199 69.1005 264.51 69.4834 264.51Z" stroke="white" stroke-width="6" stroke-linecap="round" stroke-linejoin="round"/><path fill-rule="evenodd" clip-rule="evenodd" d="M120.032 193.365C120.415 193.365 120.725 193.055 120.725 192.672C120.725 192.289 120.415 191.979 120.032 191.979C119.649 191.979 119.339 192.289 119.339 192.672C119.339 193.055 119.649 193.365 120.032 193.365Z" stroke="white" stroke-width="6" stroke-linecap="round" stroke-linejoin="round"/><path fill-rule="evenodd" clip-rule="evenodd" d="M146.403 26.2507C146.786 26.2507 147.096 25.9403 147.096 25.5575C147.096 25.1746 146.786 24.8643 146.403 24.8643C146.02 24.8643 145.71 25.1746 145.71 25.5575C145.71 25.9403 146.02 26.2507 146.403 26.2507Z" stroke="white" stroke-width="6" stroke-linecap="round" stroke-linejoin="round"/><path fill-rule="evenodd" clip-rule="evenodd" d="M305.112 163.906C311.124 163.906 315.998 159.032 315.998 153.02C315.998 147.008 311.124 142.135 305.112 142.135C299.101 142.135 294.227 147.008 294.227 153.02C294.227 159.032 299.101 163.906 305.112 163.906Z" stroke="white" stroke-width="6" stroke-linecap="round" stroke-linejoin="round"/><path fill-rule="evenodd" clip-rule="evenodd" d="M266.521 137.895L206.153 106.757C204.176 105.732 199.948 104.844 199.948 104.844H139.219C138.083 105.233 136.968 105.68 135.879 106.184L75.5104 137.322C70.4533 139.875 68.143 145.836 70.1594 151.13C71.2938 153.985 73.5823 156.228 76.46 157.306C79.3377 158.383 82.5366 158.193 85.2672 156.784L131.771 132.796V265.008C131.771 270.652 135.97 275.55 141.585 276.094C144.642 276.388 147.68 275.38 149.956 273.318C152.231 271.256 153.533 268.331 153.542 265.26V207.682C153.542 199.614 160.083 193.073 168.151 193.073V193.073C176.22 193.073 182.76 199.614 182.76 207.682V265.008C182.76 270.652 186.96 275.55 192.575 276.094C195.631 276.388 198.67 275.38 200.946 273.318C203.221 271.256 204.523 268.331 204.531 265.26V130.413L256.764 157.34C259.495 158.749 262.694 158.938 265.571 157.861C268.449 156.784 270.737 154.541 271.872 151.685C273.878 146.397 271.569 140.447 266.521 137.895V137.895Z" stroke="white" stroke-width="6" stroke-linecap="round" stroke-linejoin="round"/><path d="M219.714 138.245V175.026C219.714 178.823 216.635 181.901 212.839 181.901H204.531" stroke="white" stroke-width="6"/><path d="M203.723 80.4951H212.838C216.635 80.4951 219.713 83.5732 219.713 87.3701V113.753" stroke="white" stroke-width="6"/><path d="M118.307 115.248V87.3701C118.307 83.5732 121.385 80.4951 125.182 80.4951H137.03" stroke="white" stroke-width="6"/><path d="M131.771 181.901H125.182C121.385 181.901 118.307 178.823 118.307 175.026V139.74" stroke="white" stroke-width="6"/><path fill-rule="evenodd" clip-rule="evenodd" d="M170.443 104.557C189.111 104.557 204.245 89.4236 204.245 70.7552C204.245 52.0868 189.111 36.9531 170.443 36.9531C151.774 36.9531 136.641 52.0868 136.641 70.7552C136.641 89.4236 151.774 104.557 170.443 104.557Z" stroke="white" stroke-width="6"/><path d="M189.973 43.1631L163.568 69.036" stroke="white" stroke-width="6" stroke-linecap="round" stroke-linejoin="round"/><path d="M185.963 78.1113L159.557 103.984" stroke="white" stroke-width="6" stroke-linecap="round" stroke-linejoin="round"/><path d="M223.151 171.016C229.963 171.359 242.126 170.752 247.214 176.745C254.089 184.823 242.212 199.089 249.505 206.536C256.002 213.188 266.24 206.502 272.995 213.984C277.034 218.459 278.283 223.93 278.724 227.734" stroke="white" stroke-width="6" stroke-linecap="round" stroke-linejoin="round"/><rect x="147.526" y="115.442" width="41.25" height="56.1458" rx="12" stroke="white" stroke-width="6" stroke-linecap="round" stroke-linejoin="round"/><rect x="156.693" y="125.183" width="1.14583" height="1.14583" rx="0.572917" stroke="white" stroke-width="6" stroke-linecap="round" stroke-linejoin="round"/><rect x="167.578" y="125.183" width="1.14583" height="1.14583" rx="0.572917" stroke="white" stroke-width="6" stroke-linecap="round" stroke-linejoin="round"/><rect x="179.036" y="125.183" width="1.14583" height="1.14583" rx="0.572917" stroke="white" stroke-width="6" stroke-linecap="round" stroke-linejoin="round"/><rect x="156.693" y="137.368" width="22.9167" height="26.0391" rx="8.24" stroke="white" stroke-width="6" stroke-linecap="round" stroke-linejoin="round"/>
</svg>