<svg class="service-icon-2" aria-hidden="true" version="1.1" xmlns="http://www.w3.org/2000/svg" xmlns:xlink="http://www.w3.org/1999/xlink"  viewBox="0 0 331 330">
    <path class="fire" d="M78.4036 233.218C95.9721 253.746 126.82 256.234 147.452 238.786L314.755 96.2504C300.678 65.9534 277.774 40.6174 249.047 23.5645L83.9724 164.17C63.4442 181.738 60.9563 212.586 78.4036 233.218Z" fill="#FC486B"/>
    <path fill-rule="evenodd" clip-rule="evenodd" d="M115.741 236.666C134.567 236.666 149.829 221.404 149.829 202.578C149.829 183.751 134.567 168.489 115.741 168.489C96.9141 168.489 81.6521 183.751 81.6521 202.578C81.6521 221.404 96.9141 236.666 115.741 236.666Z" stroke="white" stroke-width="6"/>
    <path d="M208.925 187.023L148.15 239.313C127.623 256.885 96.7592 254.581 79.0682 234.157V234.157C61.5073 213.623 63.8237 182.763 84.2531 165.081L199.535 65.8857" stroke="white" stroke-width="6" stroke-linecap="round"/>
    <path d="M218.172 182.777C219.596 182.777 220.75 181.623 220.75 180.199C220.75 178.775 219.596 177.621 218.172 177.621C216.749 177.621 215.594 178.775 215.594 180.199C215.594 181.623 216.749 182.777 218.172 182.777Z" fill="white"/>
    <path d="M258.191 82.5918C259.615 82.5918 260.769 81.4375 260.769 80.0137C260.769 78.5898 259.615 77.4355 258.191 77.4355C256.767 77.4355 255.613 78.5898 255.613 80.0137C255.613 81.4375 256.767 82.5918 258.191 82.5918Z" fill="white"/>
    <path d="M165.871 192.322L199.53 163.367" stroke="white" stroke-width="6" stroke-linecap="round"/>
    <path d="M138.079 151.239L197.576 100.049" stroke="white" stroke-width="6" stroke-linecap="round"/><path d="M210.822 153.651L235.578 132.35" stroke="white" stroke-width="6" stroke-linecap="round"/>
    <path d="M165.934 159.013L245.409 90.6357" stroke="white" stroke-width="6" stroke-linecap="round"/><path d="M92.0505 209.739L98.1292 204.531C106.815 197.083 97.4245 192.288 106.975 184.066L115.374 176.842" stroke="white" stroke-width="6" stroke-linecap="round"/><path d="M81.761 205.287L91.9875 196.487" stroke="white" stroke-width="6" stroke-linecap="round"/>
    <path d="M124.5 183.333L116.25 190.431C111.885 194.19 116.823 199.025 111.18 203.866C117.259 198.636 121.561 206.267 126.34 202.148L145.011 186.106" stroke="white" stroke-width="6" stroke-linecap="round" stroke-linejoin="round"/>
    <path fill-rule="evenodd" clip-rule="evenodd" d="M116.119 226.136C119.916 226.136 122.994 223.058 122.994 219.261C122.994 215.464 119.916 212.386 116.119 212.386C112.322 212.386 109.244 215.464 109.244 219.261C109.244 223.058 112.322 226.136 116.119 226.136Z" stroke="white" stroke-width="6" stroke-linecap="round" stroke-linejoin="round"/><path d="M283.571 130.729L279.234 120.548" stroke="white" stroke-width="6" stroke-linecap="round" stroke-linejoin="round"/><path d="M286.596 123.716L276.415 128.053" stroke="white" stroke-width="6" stroke-linecap="round" stroke-linejoin="round"/><path d="M210.65 252.387L206.307 242.212" stroke="white" stroke-width="6" stroke-linecap="round" stroke-linejoin="round"/><path d="M213.675 245.38L203.494 249.717" stroke="white" stroke-width="6" stroke-linecap="round" stroke-linejoin="round"/>
    <path d="M292.76 227.86L284.419 208.301" stroke="white" stroke-width="6" stroke-linecap="round" stroke-linejoin="round"/>
    <path d="M298.575 214.392L279.01 222.728" stroke="white" stroke-width="6" stroke-linecap="round" stroke-linejoin="round"/>
    <path d="M108.19 87.8458L103.847 77.665" stroke="white" stroke-width="6" stroke-linecap="round" stroke-linejoin="round"/>
    <path d="M111.215 80.833L101.034 85.17" stroke="white" stroke-width="6" stroke-linecap="round" stroke-linejoin="round"/>
    <rect x="146.65" y="276.812" width="13.1488" height="13.1488" transform="rotate(111.695 146.65 276.812)" stroke="white" stroke-width="6" stroke-linecap="round" stroke-linejoin="round"/>
    <rect x="159.548" y="47.8486" width="13.137" height="13.137" transform="rotate(128.16 159.548 47.8486)" stroke="white" stroke-width="6" stroke-linecap="round" stroke-linejoin="round"/>
    <path fill-rule="evenodd" clip-rule="evenodd" d="M91.5636 266.63C91.9465 266.63 92.2568 266.319 92.2568 265.936C92.2568 265.554 91.9465 265.243 91.5636 265.243C91.1807 265.243 90.8704 265.554 90.8704 265.936C90.8704 266.319 91.1807 266.63 91.5636 266.63Z" stroke="white" stroke-width="6" stroke-linecap="round" stroke-linejoin="round"/>
    <path fill-rule="evenodd" clip-rule="evenodd" d="M72.8922 132.711C73.2751 132.711 73.5854 132.4 73.5854 132.017C73.5854 131.635 73.2751 131.324 72.8922 131.324C72.5093 131.324 72.199 131.635 72.199 132.017C72.199 132.4 72.5093 132.711 72.8922 132.711Z" stroke="white" stroke-width="6" stroke-linecap="round" stroke-linejoin="round"/>
    <path fill-rule="evenodd" clip-rule="evenodd" d="M263.227 146.295C263.609 146.295 263.92 145.984 263.92 145.601C263.92 145.219 263.609 144.908 263.227 144.908C262.844 144.908 262.533 145.219 262.533 145.601C262.533 145.984 262.844 146.295 263.227 146.295Z" stroke="white" stroke-width="6" stroke-linecap="round" stroke-linejoin="round"/>
    <path fill-rule="evenodd" clip-rule="evenodd" d="M240.911 217.994C246.923 217.994 251.797 213.121 251.797 207.109C251.797 201.097 246.923 196.224 240.911 196.224C234.9 196.224 230.026 201.097 230.026 207.109C230.026 213.121 234.9 217.994 240.911 217.994Z" stroke="white" stroke-width="6" stroke-linecap="round" stroke-linejoin="round"/>
</svg>