<svg class="service-icon-1" aria-hidden="true" version="1.1" xmlns="http://www.w3.org/2000/svg" xmlns:xlink="http://www.w3.org/1999/xlink"  viewBox="0 0 331 330">
    <path class="fire" d="M46.125 279.164C69.3676 303.606 99.53 320.303 132.537 327L172.125 220.099L133.796 196L46.125 279.164Z" fill="#FC486B"/>
    <path fill-rule="evenodd" clip-rule="evenodd" d="M222.391 102C222.391 102 232.702 142.049 213.275 171.777L178.492 225L134.212 196.417L127.125 191.833L161.908 138.611C181.71 108.32 222.391 102 222.391 102Z" stroke="white" stroke-width="6" stroke-linecap="round" stroke-linejoin="round"/>
    <path fill-rule="evenodd" clip-rule="evenodd" d="M218.984 186C218.984 186 223.293 203.256 215.164 216.068L200.613 239L179.125 224.713L193.675 201.786C201.961 188.724 218.984 186 218.984 186Z" stroke="white" stroke-width="6" stroke-linecap="round" stroke-linejoin="round"/>
    <path fill-rule="evenodd" clip-rule="evenodd" d="M145.984 139C145.984 139 150.293 156.256 142.164 169.068L127.616 192L106.125 177.713L120.673 154.786C128.952 141.724 145.984 139 145.984 139Z" stroke="white" stroke-width="6" stroke-linecap="round" stroke-linejoin="round"/>
    <path d="M125.334 254.507C125.246 252.853 123.833 251.583 122.179 251.671C120.524 251.759 119.254 253.171 119.342 254.826L125.334 254.507ZM137.406 197.636C138.309 196.247 137.915 194.388 136.526 193.485C135.137 192.582 133.279 192.975 132.376 194.364L137.406 197.636ZM124.622 258.282C126.169 257.69 126.943 255.955 126.351 254.408C125.758 252.86 124.023 252.086 122.476 252.679L124.622 258.282ZM174.64 221.809C175.543 220.42 175.15 218.562 173.761 217.658C172.373 216.755 170.514 217.148 169.611 218.537L174.64 221.809ZM119.342 254.826C119.373 255.407 119.38 255.711 119.379 255.809C119.379 255.835 119.378 255.796 119.384 255.724C119.386 255.696 119.394 255.593 119.418 255.457C119.429 255.392 119.455 255.258 119.507 255.092C119.537 254.997 119.673 254.555 120.039 254.104C120.253 253.868 120.864 253.401 121.271 253.205C121.807 253.051 122.896 253.046 123.412 253.187C124.461 253.578 124.908 254.407 124.956 254.49C125.182 254.878 125.261 255.231 125.261 255.233C125.285 255.326 125.298 255.396 125.302 255.419C125.307 255.449 125.31 255.469 125.311 255.473C125.311 255.477 125.304 255.421 125.291 255.277C125.28 255.145 125.267 254.967 125.254 254.745C125.226 254.301 125.197 253.701 125.174 252.96C125.08 249.99 125.077 244.867 125.567 238.666C126.557 226.158 129.523 209.757 137.406 197.636L132.376 194.364C123.659 207.768 120.598 225.4 119.586 238.193C119.076 244.643 119.077 249.988 119.177 253.149C119.225 254.672 119.299 255.814 119.369 256.309C119.377 256.365 119.4 256.532 119.448 256.72C119.453 256.74 119.537 257.105 119.766 257.5C119.816 257.586 120.265 258.417 121.316 258.809C121.833 258.951 122.923 258.946 123.46 258.791C123.868 258.595 124.479 258.127 124.694 257.89C125.062 257.437 125.2 256.992 125.231 256.892C125.285 256.721 125.312 256.581 125.325 256.508C125.352 256.357 125.362 256.233 125.366 256.178C125.376 256.053 125.378 255.938 125.379 255.864C125.381 255.566 125.365 255.101 125.334 254.507L119.342 254.826ZM122.476 252.679C121.92 252.892 121.489 253.066 121.216 253.191C121.149 253.221 121.044 253.27 120.933 253.33C120.884 253.357 120.774 253.417 120.646 253.504C120.584 253.546 120.466 253.63 120.33 253.75C120.251 253.821 119.897 254.131 119.635 254.659C119.507 254.955 119.334 255.708 119.325 256.161C119.406 256.711 119.848 257.698 120.186 258.107C120.966 258.896 121.896 258.971 121.999 258.982C122.454 259.032 122.822 258.96 122.843 258.957C123.035 258.924 123.198 258.878 123.253 258.862C123.735 258.725 124.81 258.328 126.223 257.752C129.156 256.558 134.047 254.385 139.741 251.297C151.034 245.171 165.92 235.209 174.64 221.809L169.611 218.537C161.725 230.656 147.923 240.033 136.88 246.023C131.405 248.993 126.716 251.073 123.96 252.196C123.272 252.476 122.711 252.694 122.294 252.849C122.085 252.927 121.918 252.987 121.792 253.031C121.656 253.078 121.601 253.094 121.605 253.093C121.609 253.092 121.629 253.086 121.659 253.079C121.682 253.073 121.751 253.056 121.846 253.04C121.849 253.04 122.204 252.969 122.65 253.018C122.749 253.029 123.677 253.102 124.455 253.891C124.793 254.299 125.234 255.285 125.316 255.834C125.306 256.286 125.134 257.038 125.006 257.333C124.745 257.858 124.394 258.166 124.318 258.233C124.187 258.35 124.073 258.429 124.018 258.467C123.903 258.545 123.811 258.595 123.785 258.609C123.721 258.643 123.685 258.659 123.708 258.649C123.797 258.608 124.078 258.49 124.622 258.282L122.476 252.679Z" fill="white"/>
    <path d="M224.125 143L185.125 117" stroke="white" stroke-width="6"/>
    <path fill-rule="evenodd" clip-rule="evenodd" d="M178.625 187C189.947 187 199.125 177.822 199.125 166.5C199.125 155.178 189.947 146 178.625 146C167.303 146 158.125 155.178 158.125 166.5C158.125 177.822 167.303 187 178.625 187Z" stroke="white" stroke-width="6"/>
    <path fill-rule="evenodd" clip-rule="evenodd" d="M102.125 120C120.903 120 136.125 104.778 136.125 86C136.125 67.2223 120.903 52 102.125 52C83.3473 52 68.125 67.2223 68.125 86C68.125 104.778 83.3473 120 102.125 120Z" stroke="white" stroke-width="6"/>
    <path d="M127.935 64.4672C142.322 63.0965 152.537 64.7358 153.958 69.4634C156.26 77.1562 134.501 90.1306 105.324 98.4333C76.1468 106.736 50.6184 107.228 48.2992 99.5522C46.9813 95.2386 53.231 89.2746 64.0559 83.4168C65.1436 82.8573 66.2715 82.2475 67.4455 81.6657" stroke="white" stroke-width="6"/>
    <path fill-rule="evenodd" clip-rule="evenodd" d="M271.625 197C280.738 197 288.125 189.613 288.125 180.5C288.125 171.387 280.738 164 271.625 164C262.512 164 255.125 171.387 255.125 180.5C255.125 189.613 262.512 197 271.625 197Z" stroke="white" stroke-width="6"/>
    <path d="M70.125 155V166" stroke="white" stroke-width="6" stroke-linecap="round" stroke-linejoin="round"/>
    <path d="M64.125 160H75.125" stroke="white" stroke-width="6" stroke-linecap="round" stroke-linejoin="round"/>
    <path d="M185.125 71V82" stroke="white" stroke-width="6" stroke-linecap="round" stroke-linejoin="round"/>
    <path d="M180.125 77H191.125" stroke="white" stroke-width="6" stroke-linecap="round" stroke-linejoin="round"/>
    <path d="M216.125 262V273" stroke="white" stroke-width="6" stroke-linecap="round" stroke-linejoin="round"/>
    <path d="M209.125 268H220.125" stroke="white" stroke-width="6" stroke-linecap="round" stroke-linejoin="round"/>
    <rect x="253.433" y="75.5" width="13" height="13" transform="rotate(-45 253.433 75.5)" stroke="white" stroke-width="6" stroke-linecap="round" stroke-linejoin="round"/>
    <rect x="58.4326" y="225.5" width="13" height="13" transform="rotate(-45 58.4326 225.5)" stroke="white" stroke-width="6" stroke-linecap="round" stroke-linejoin="round"/>
    <path fill-rule="evenodd" clip-rule="evenodd" d="M264.625 115C264.901 115 265.125 114.776 265.125 114.5C265.125 114.224 264.901 114 264.625 114C264.349 114 264.125 114.224 264.125 114.5C264.125 114.776 264.349 115 264.625 115Z" stroke="white" stroke-width="6" stroke-linecap="round" stroke-linejoin="round"/>
    <path fill-rule="evenodd" clip-rule="evenodd" d="M264.625 236C264.901 236 265.125 235.776 265.125 235.5C265.125 235.224 264.901 235 264.625 235C264.349 235 264.125 235.224 264.125 235.5C264.125 235.776 264.349 236 264.625 236Z" stroke="white" stroke-width="6" stroke-linecap="round" stroke-linejoin="round"/>
    <path fill-rule="evenodd" clip-rule="evenodd" d="M94.625 250C94.9011 250 95.125 249.776 95.125 249.5C95.125 249.224 94.9011 249 94.625 249C94.3489 249 94.125 249.224 94.125 249.5C94.125 249.776 94.3489 250 94.625 250Z" stroke="white" stroke-width="6" stroke-linecap="round" stroke-linejoin="round"/>
    <path fill-rule="evenodd" clip-rule="evenodd" d="M94.625 150C94.9011 150 95.125 149.776 95.125 149.5C95.125 149.224 94.9011 149 94.625 149C94.3489 149 94.125 149.224 94.125 149.5C94.125 149.776 94.3489 150 94.625 150Z" stroke="white" stroke-width="6" stroke-linecap="round" stroke-linejoin="round"/>
    <path d="M153.125 209L139.125 230" stroke="white" stroke-width="6" stroke-linecap="round" stroke-linejoin="round"/>
    <path fill-rule="evenodd" clip-rule="evenodd" d="M134.625 238C134.901 238 135.125 237.776 135.125 237.5C135.125 237.224 134.901 237 134.625 237C134.349 237 134.125 237.224 134.125 237.5C134.125 237.776 134.349 238 134.625 238Z" stroke="white" stroke-width="6" stroke-linecap="round" stroke-linejoin="round"/>
    <path fill-rule="evenodd" clip-rule="evenodd" d="M149.625 283C155.424 283 160.125 278.299 160.125 272.5C160.125 266.701 155.424 262 149.625 262C143.826 262 139.125 266.701 139.125 272.5C139.125 278.299 143.826 283 149.625 283Z" stroke="white" stroke-width="6" stroke-linecap="round" stroke-linejoin="round"/>

</svg>