<svg class="service-icon-1" aria-hidden="true" version="1.1" xmlns="http://www.w3.org/2000/svg" xmlns:xlink="http://www.w3.org/1999/xlink"  viewBox="0 0 331 330">
    <path class="fire" d="M312.979 91.9531C304.016 73.8483 291.814 57.5376 276.977 43.8281H165.286C151.997 43.8281 141.224 54.6013 141.224 67.8906C141.224 81.18 151.997 91.9531 165.286 91.9531H312.979Z" fill="#FC486B"/>
    <path fill-rule="evenodd" clip-rule="evenodd" d="M165.859 85.6514C175.352 85.6514 183.047 77.9563 183.047 68.4639C183.047 58.9715 175.352 51.2764 165.859 51.2764C156.367 51.2764 148.672 58.9715 148.672 68.4639C148.672 77.9563 156.367 85.6514 165.859 85.6514Z" stroke="white" stroke-width="9"/>
    <path d="M193.359 55.2861H272.995" stroke="white" stroke-width="9" stroke-linecap="round" stroke-linejoin="round"/><path d="M199.089 68.4639H251.224" stroke="white" stroke-width="9" stroke-linecap="round" stroke-linejoin="round"/><path d="M208.524 23.2887L197.668 21.1689" stroke="white" stroke-width="9" stroke-linecap="round" stroke-linejoin="round"/><path d="M204.422 16.8496L202.303 27.7121" stroke="white" stroke-width="9" stroke-linecap="round" stroke-linejoin="round"/><path d="M87.6391 63.3932L76.7823 61.2734" stroke="white" stroke-width="9" stroke-linecap="round" stroke-linejoin="round"/><path d="M83.537 56.9541L81.4172 67.8166" stroke="white" stroke-width="9" stroke-linecap="round" stroke-linejoin="round"/><path d="M268.32 174.832L257.457 172.712" stroke="white" stroke-width="9" stroke-linecap="round" stroke-linejoin="round"/><path d="M264.212 168.392L262.092 179.254" stroke="white" stroke-width="9" stroke-linecap="round" stroke-linejoin="round"/><path d="M294.09 93.0988L273.213 89.0254" stroke="white" stroke-width="9" stroke-linecap="round" stroke-linejoin="round"/><path d="M286.195 80.7295L282.121 101.601" stroke="white" stroke-width="9" stroke-linecap="round" stroke-linejoin="round"/><path d="M45.9823 161.591L35.1198 159.472" stroke="white" stroke-width="9" stroke-linecap="round" stroke-linejoin="round"/><path d="M41.8744 155.151L39.7546 166.014" stroke="white" stroke-width="9" stroke-linecap="round" stroke-linejoin="round"/><rect x="70.3433" y="102.362" width="13.137" height="13.137" transform="rotate(72.29 70.3433 102.362)" stroke="white" stroke-width="9" stroke-linecap="round" stroke-linejoin="round"/><path fill-rule="evenodd" clip-rule="evenodd" d="M120.032 193.365C120.415 193.365 120.725 193.055 120.725 192.672C120.725 192.289 120.415 191.979 120.032 191.979C119.649 191.979 119.339 192.289 119.339 192.672C119.339 193.055 119.649 193.365 120.032 193.365Z" stroke="white" stroke-width="9" stroke-linecap="round" stroke-linejoin="round"/><path fill-rule="evenodd" clip-rule="evenodd" d="M146.403 26.2507C146.786 26.2507 147.096 25.9403 147.096 25.5575C147.096 25.1746 146.786 24.8643 146.403 24.8643C146.02 24.8643 145.71 25.1746 145.71 25.5575C145.71 25.9403 146.02 26.2507 146.403 26.2507Z" stroke="white" stroke-width="9" stroke-linecap="round" stroke-linejoin="round"/><path d="M243.117 80.9989C243.192 80.6265 243.558 79.8072 243.931 79.8817C244.303 79.9562 244.549 80.89 244.504 81.2624" stroke="white" stroke-width="9" stroke-linecap="round" stroke-linejoin="round"/><path fill-rule="evenodd" clip-rule="evenodd" d="M305.112 163.906C311.124 163.906 315.998 159.032 315.998 153.02C315.998 147.008 311.124 142.135 305.112 142.135C299.101 142.135 294.227 147.008 294.227 153.02C294.227 159.032 299.101 163.906 305.112 163.906Z" stroke="white" stroke-width="9" stroke-linecap="round" stroke-linejoin="round"/><rect x="154.48" y="129.582" width="52.9948" height="78.4896" rx="19.39" transform="rotate(-30 154.48 129.582)" stroke="white" stroke-width="9"/><path fill-rule="evenodd" clip-rule="evenodd" d="M85.714 186.483L161.914 142.489L187.123 186.151L110.922 230.145C108.765 231.396 106.199 231.737 103.79 231.094C101.381 230.451 99.327 228.876 98.0803 226.717L82.2621 199.319C81.0169 197.162 80.6794 194.599 81.324 192.193C81.9686 189.788 83.5423 187.737 85.6991 186.491L85.714 186.483Z" stroke="white" stroke-width="9" stroke-linecap="round" stroke-linejoin="round"/><path fill-rule="evenodd" clip-rule="evenodd" d="M58.1625 237.331L93.5172 219.353L84.9235 204.457L51.6943 226.09C50.108 227.118 49.6044 229.208 50.5485 230.846L53.4818 235.927C54.4232 237.562 56.4769 238.178 58.1625 237.331Z" stroke="white" stroke-width="9" stroke-linecap="round" stroke-linejoin="round"/><path d="M205.964 112.756C205.964 112.756 218.407 114.836 228.433 132.201C238.459 149.566 234.036 161.385 234.036 161.385" stroke="white" stroke-width="9" stroke-linecap="round" stroke-linejoin="round"/><path d="M122.318 306.796L160.302 206.49V310.807" stroke="white" stroke-width="9" stroke-linecap="round" stroke-linejoin="round"/><path d="M204.818 310.807L160.13 206.536" stroke="white" stroke-width="9" stroke-linecap="round" stroke-linejoin="round"/><path d="M191.641 80.4951H229.453" stroke="white" stroke-width="9" stroke-linecap="round"/>
</svg>