<svg class="service-icon-6" aria-hidden="true" version="1.1" xmlns="http://www.w3.org/2000/svg" xmlns:xlink="http://www.w3.org/1999/xlink"  viewBox="0 0 331 330">
    <path class="fire" d="M36.4138 144.661C36.4138 139.419 38.4819 134.392 42.1631 130.685C45.8443 126.978 50.8371 124.896 56.0431 124.896H86.7672C97.6082 124.896 106.397 116.046 106.397 105.13V104.557C106.397 93.641 97.6082 84.7917 86.7672 84.7917H84.4914C73.6504 84.7917 64.8621 75.9423 64.8621 65.026C64.8621 54.1098 73.6504 45.2604 84.4914 45.2604H124.888C130.094 45.2604 135.087 43.178 138.768 39.4712C142.449 35.7644 144.517 30.737 144.517 25.4948V24.9219C144.517 19.6797 142.449 14.6522 138.768 10.9455C135.087 7.23869 130.094 5.15625 124.888 5.15625H120.951C49.7503 24.5609 0 87.8396 0 164.427H16.7845C27.6255 164.427 36.4138 155.578 36.4138 144.661Z" fill="#FC486B"/>
    <path class="fire" d="M308.948 181.901C308.948 192.818 300.16 201.667 289.319 201.667H248.922C238.081 201.667 229.293 210.516 229.293 221.433V222.006C229.293 232.922 238.081 241.771 248.922 241.771H251.198C262.039 241.771 270.828 250.621 270.828 261.537C270.828 272.453 262.039 281.302 251.198 281.302H220.474C209.633 281.302 200.845 290.152 200.845 301.068V301.641C200.846 311.376 207.884 319.662 217.436 321.172C282.804 299.487 330 237.514 330 164.427C330 163.66 330 162.898 330 162.136H328.578C317.737 162.136 308.948 170.985 308.948 181.901Z" fill="#FC486B"/>
    <path class="fire" d="M270.685 37.3711C271.534 39.6163 271.967 41.9986 271.966 44.4008C271.966 55.317 263.177 64.1664 252.336 64.1664H221.612C210.771 64.1664 201.983 73.0158 201.983 83.932V84.5049C201.983 95.4212 210.771 104.271 221.612 104.271H318.763C308.611 78.2369 292.07 55.22 270.685 37.3711V37.3711Z" fill="#FC486B"/>
    <path class="fire" d="M248.353 24.6356H250.629C250.937 24.6356 251.238 24.6356 251.54 24.6356C244.864 20.4071 237.893 16.6715 230.681 13.458C233.955 20.2886 240.821 24.6313 248.353 24.6356Z" fill="#FC486B"/>
    <path d="M230.414 47.3512L219.632 45.2314" stroke="white" stroke-width="6" stroke-linecap="round" stroke-linejoin="round"/>
    <path d="M226.34 40.9121L224.235 51.7746" stroke="white" stroke-width="6" stroke-linecap="round" stroke-linejoin="round"/><path d="M86.4657 62.82L75.6838 60.7002" stroke="white" stroke-width="6" stroke-linecap="round" stroke-linejoin="round"/><path d="M82.3919 56.3809L80.2867 67.2434" stroke="white" stroke-width="6" stroke-linecap="round" stroke-linejoin="round"/><path d="M243.711 261.915L232.923 259.795" stroke="white" stroke-width="6" stroke-linecap="round" stroke-linejoin="round"/><path d="M239.631 254.902L237.526 265.765" stroke="white" stroke-width="6" stroke-linecap="round" stroke-linejoin="round"/><path d="M291.492 92.5256L270.759 88.4521" stroke="white" stroke-width="6" stroke-linecap="round" stroke-linejoin="round"/><path d="M283.652 80.1572L279.607 101.029" stroke="white" stroke-width="6" stroke-linecap="round" stroke-linejoin="round"/>
    <path d="M45.0962 161.018L34.3086 158.898" stroke="white" stroke-width="6" stroke-linecap="round" stroke-linejoin="round"/>
    <path d="M41.0167 154.579L38.9115 165.442" stroke="white" stroke-width="6" stroke-linecap="round" stroke-linejoin="round"/>
    <rect x="112.397" y="268.812" width="13.0464" height="13.137" transform="rotate(56.04 112.397 268.812)" stroke="white" stroke-width="6" stroke-linecap="round" stroke-linejoin="round"/>
    <rect x="52.2648" y="101.835" width="13.0464" height="13.137" transform="rotate(72.29 52.2648 101.835)" stroke="white" stroke-width="6" stroke-linecap="round" stroke-linejoin="round"/>
    <path fill-rule="evenodd" clip-rule="evenodd" d="M68.4352 263.937C68.8154 263.937 69.1236 263.627 69.1236 263.244C69.1236 262.861 68.8154 262.551 68.4352 262.551C68.0549 262.551 67.7467 262.861 67.7467 263.244C67.7467 263.627 68.0549 263.937 68.4352 263.937Z" stroke="white" stroke-width="6" stroke-linecap="round" stroke-linejoin="round"/><path fill-rule="evenodd" clip-rule="evenodd" d="M144.824 25.6785C145.205 25.6785 145.513 25.3681 145.513 24.9852C145.513 24.6024 145.205 24.292 144.824 24.292C144.444 24.292 144.136 24.6024 144.136 24.9852C144.136 25.3681 144.444 25.6785 144.824 25.6785Z" stroke="white" stroke-width="6" stroke-linecap="round" stroke-linejoin="round"/>
    <path fill-rule="evenodd" clip-rule="evenodd" d="M302.439 163.332C308.41 163.332 313.25 158.459 313.25 152.447C313.25 146.435 308.41 141.562 302.439 141.562C296.469 141.562 291.629 146.435 291.629 152.447C291.629 158.459 296.469 163.332 302.439 163.332Z" stroke="white" stroke-width="6" stroke-linecap="round" stroke-linejoin="round"/><path d="M100.872 197.571C99.6595 195.236 98.5712 192.838 97.6117 190.386C87.8337 165.275 92.6532 136.778 110.134 116.341C127.616 95.9048 154.89 86.8825 181.001 92.8987C207.113 98.9148 227.777 118.982 234.693 145.04" stroke="white" stroke-width="6"/><path d="M237.077 166.639C235.922 195.722 217.672 221.317 190.674 231.716C163.676 242.115 133.121 235.319 112.985 214.437" stroke="white" stroke-width="6"/>
    <path d="M92.5821 166.032L91.4721 163.245L91.186 163.358L90.929 163.528L92.5821 166.032ZM58.7002 207.643L55.9052 208.733L55.9061 208.735L58.7002 207.643ZM177.881 195.537L176.777 192.747L176.777 192.748L177.881 195.537ZM236.821 165.974L238.44 168.5L238.44 168.5L236.821 165.974ZM273.325 122.656L276.12 121.565L276.118 121.561L273.325 122.656ZM219.092 115.649L218.567 112.696L218.266 112.749L217.982 112.862L219.092 115.649ZM225.919 124.816L225.764 121.82L225.268 121.846L224.807 122.03L225.919 124.816ZM243.887 129.709L241.093 130.8L241.094 130.804L243.887 129.709ZM85.0205 192.609L82.2257 193.7L82.2263 193.701L85.0205 192.609ZM93.8907 177.541L92.7781 174.755L92.302 174.946L91.916 175.283L93.8907 177.541ZM90.929 163.528C78.7176 171.592 69.0014 179.681 62.8006 187.156C56.7791 194.415 53.3024 202.058 55.9052 208.733L61.4952 206.553C60.1949 203.218 61.5685 198.039 67.4186 190.987C73.0892 184.151 82.2655 176.439 94.2351 168.535L90.929 163.528ZM55.9061 208.735C58.1073 214.366 63.9635 217.511 71.1202 219.063C78.4061 220.643 87.8952 220.78 98.8301 219.669C120.743 217.444 149.173 210.134 178.986 198.326L176.777 192.748C147.326 204.412 119.446 211.545 98.224 213.7C87.5915 214.78 78.8072 214.59 72.3916 213.199C65.8467 211.78 62.5731 209.31 61.4942 206.55L55.9061 208.735ZM178.986 198.326C201.817 189.288 222.249 178.88 238.44 168.5L235.201 163.449C219.382 173.591 199.303 183.83 176.777 192.747L178.986 198.326ZM238.44 168.5C251.469 160.143 261.875 151.72 268.547 143.944C271.881 140.058 274.386 136.216 275.768 132.517C277.159 128.796 277.475 125.036 276.12 121.565L270.531 123.747C271.198 125.455 271.189 127.63 270.148 130.416C269.099 133.223 267.064 136.458 263.993 140.037C257.855 147.191 247.986 155.249 235.201 163.449L238.44 168.5ZM276.118 121.561C273.461 114.784 265.548 111.567 256.011 110.423C246.184 109.244 233.295 110.081 218.567 112.696L219.616 118.603C234.059 116.039 246.295 115.3 255.297 116.38C264.589 117.495 269.207 120.371 270.532 123.751L276.118 121.561ZM93.692 168.819L220.202 118.436L217.982 112.862L91.4721 163.245L93.692 168.819ZM226.075 127.812C230.899 127.561 234.664 127.83 237.298 128.522C240.019 129.237 240.861 130.207 241.093 130.8L246.682 128.617C245.405 125.349 242.228 123.614 238.824 122.719C235.333 121.802 230.868 121.555 225.764 121.82L226.075 127.812ZM241.094 130.804C241.25 131.2 241.327 131.875 240.907 133.027C240.479 134.202 239.598 135.673 238.143 137.42C235.235 140.911 230.445 145.016 224.004 149.458C211.164 158.316 192.32 168.138 170.525 176.763L172.732 182.342C194.821 173.601 214.098 163.581 227.411 154.397C234.048 149.819 239.343 145.354 242.753 141.26C244.457 139.214 245.794 137.14 246.544 135.082C247.303 133.001 247.52 130.756 246.68 128.614L241.094 130.804ZM170.525 176.763C148.729 185.388 128.295 191.117 112.91 193.438C105.192 194.602 98.9138 194.882 94.4289 194.322C92.1849 194.042 90.5494 193.57 89.4462 193.006C88.3666 192.455 87.9696 191.913 87.8148 191.517L82.2263 193.701C83.0644 195.846 84.7471 197.344 86.7183 198.35C88.666 199.345 91.0524 199.947 93.6855 200.276C98.955 200.934 105.852 200.57 113.805 199.37C129.76 196.963 150.644 191.082 172.732 182.342L170.525 176.763ZM87.8154 191.519C87.5932 190.949 87.5441 189.741 88.8786 187.517C90.1775 185.353 92.4953 182.747 95.8654 179.8L91.916 175.283C88.3276 178.421 85.4906 181.503 83.7342 184.429C82.0134 187.296 81.0084 190.579 82.2257 193.7L87.8154 191.519ZM224.807 122.03L92.7781 174.755L95.0033 180.327L227.032 127.602L224.807 122.03Z" fill="white"/>
    <path d="M104.121 159.368C79.4219 134.418 67.2347 110.854 75.2855 99.0861C82.2667 88.8939 102.875 89.845 129.041 99.659" stroke="white" stroke-width="6" stroke-linecap="round"/>
    <path d="M235.381 171.973C256.171 194.632 265.861 215.405 258.458 226.216C246.686 243.404 196.145 228.892 145.564 193.784C139.345 189.475 133.422 185.052 127.829 180.578" stroke="white" stroke-width="6" stroke-linecap="round"/>
    <path fill-rule="evenodd" clip-rule="evenodd" d="M115.961 177.576C120.517 177.576 124.211 173.856 124.211 169.268C124.211 164.68 120.517 160.961 115.961 160.961C111.404 160.961 107.711 164.68 107.711 169.268C107.711 173.856 111.404 177.576 115.961 177.576Z" stroke="white" stroke-width="6"/>
    <path fill-rule="evenodd" clip-rule="evenodd" d="M131.954 131.965C140.124 131.965 146.748 125.296 146.748 117.07C146.748 108.843 140.124 102.174 131.954 102.174C123.784 102.174 117.161 108.843 117.161 117.07C117.161 125.296 123.784 131.965 131.954 131.965Z" stroke="white" stroke-width="6"/>
    <path d="M174.621 178.343C169.458 171.835 168.559 162.885 172.324 155.467C176.088 148.05 183.818 143.54 192.081 143.94C200.344 144.34 207.608 149.576 210.648 157.323C211.052 158.368 211.378 159.442 211.621 160.537" stroke="white" stroke-width="6"/>
    <path fill-rule="evenodd" clip-rule="evenodd" d="M149.666 236.001C156.108 236.001 161.33 230.743 161.33 224.257C161.33 217.77 156.108 212.512 149.666 212.512C143.225 212.512 138.003 217.77 138.003 224.257C138.003 230.743 143.225 236.001 149.666 236.001Z" stroke="white" stroke-width="6"/>
    <path fill-rule="evenodd" clip-rule="evenodd" d="M183.383 128.115C192.339 128.115 199.599 120.805 199.599 111.787C199.599 102.769 192.339 95.459 183.383 95.459C174.428 95.459 167.168 102.769 167.168 111.787C167.168 120.805 174.428 128.115 183.383 128.115Z" stroke="white" stroke-width="6"/>
    <path fill-rule="evenodd" clip-rule="evenodd" d="M144.494 150.826C144.966 150.826 145.348 150.441 145.348 149.967C145.348 149.492 144.966 149.107 144.494 149.107C144.023 149.107 143.641 149.492 143.641 149.967C143.641 150.441 144.023 150.826 144.494 150.826Z" stroke="white" stroke-width="6"/>
    <path fill-rule="evenodd" clip-rule="evenodd" d="M211.94 211.693C217.91 211.693 222.75 206.819 222.75 200.807C222.75 194.795 217.91 189.922 211.94 189.922C205.969 189.922 201.129 194.795 201.129 200.807C201.129 206.819 205.969 211.693 211.94 211.693Z" stroke="white" stroke-width="6" stroke-linecap="round" stroke-linejoin="round"/>
</svg>